<?xml version="1.0" encoding="UTF-8" standalone="no"?>
<svg
   xmlns:dc="http://purl.org/dc/elements/1.1/"
   xmlns:cc="http://creativecommons.org/ns#"
   xmlns:rdf="http://www.w3.org/1999/02/22-rdf-syntax-ns#"
   xmlns:svg="http://www.w3.org/2000/svg"
   xmlns="http://www.w3.org/2000/svg"
   xmlns:sodipodi="http://sodipodi.sourceforge.net/DTD/sodipodi-0.dtd"
   xmlns:inkscape="http://www.inkscape.org/namespaces/inkscape"
   version="1.1"
   id="svg2"
   xml:space="preserve"
   width="682.66669"
   height="682.66669"
   viewBox="0 0 682.66669 682.66669"
   sodipodi:docname="rxjs-seeklogo.com.ai"><metadata
     id="metadata8"><rdf:RDF><cc:Work
         rdf:about=""><dc:format>image/svg+xml</dc:format><dc:type
           rdf:resource="http://purl.org/dc/dcmitype/StillImage" /></cc:Work></rdf:RDF></metadata><defs
     id="defs6"><radialGradient
       fx="0"
       fy="0"
       cx="0"
       cy="0"
       r="1"
       gradientUnits="userSpaceOnUse"
       gradientTransform="matrix(94.334854,168.73981,168.73981,-94.334854,193.76939,146.40939)"
       spreadMethod="pad"
       id="radialGradient38"><stop
         style="stop-opacity:1;stop-color:#eb368e"
         offset="0"
         id="stop32" /><stop
         style="stop-opacity:1;stop-color:#ca2f8d"
         offset="0.414801"
         id="stop34" /><stop
         style="stop-opacity:1;stop-color:#6c1b89"
         offset="1"
         id="stop36" /></radialGradient><clipPath
       clipPathUnits="userSpaceOnUse"
       id="clipPath48"><path
         d="M 0,512 H 512 V 0 H 0 Z"
         id="path46" /></clipPath><linearGradient
       x1="0"
       y1="0"
       x2="1"
       y2="0"
       gradientUnits="userSpaceOnUse"
       gradientTransform="matrix(77.785774,0,0,-77.785774,198.49525,334.8717)"
       spreadMethod="pad"
       id="linearGradient72"><stop
         style="stop-opacity:1;stop-color:#eb368e"
         offset="0"
         id="stop66" /><stop
         style="stop-opacity:1;stop-color:#ca2f8d"
         offset="0.414801"
         id="stop68" /><stop
         style="stop-opacity:1;stop-color:#6c1b89"
         offset="1"
         id="stop70" /></linearGradient><radialGradient
       fx="0"
       fy="0"
       cx="0"
       cy="0"
       r="1"
       gradientUnits="userSpaceOnUse"
       gradientTransform="matrix(-76.634636,53.851364,53.851364,76.634636,312.53531,311.33081)"
       spreadMethod="pad"
       id="radialGradient94"><stop
         style="stop-opacity:1;stop-color:#eb368e"
         offset="0"
         id="stop88" /><stop
         style="stop-opacity:1;stop-color:#ca2f8d"
         offset="0.414801"
         id="stop90" /><stop
         style="stop-opacity:1;stop-color:#6c1b89"
         offset="1"
         id="stop92" /></radialGradient><clipPath
       clipPathUnits="userSpaceOnUse"
       id="clipPath104"><path
         d="M 0,512 H 512 V 0 H 0 Z"
         id="path102" /></clipPath></defs><sodipodi:namedview
     pagecolor="#ffffff"
     bordercolor="#666666"
     borderopacity="1"
     objecttolerance="10"
     gridtolerance="10"
     guidetolerance="10"
     inkscape:pageopacity="0"
     inkscape:pageshadow="2"
     inkscape:window-width="640"
     inkscape:window-height="480"
     id="namedview4" /><g
     id="g10"
     inkscape:groupmode="layer"
     inkscape:label="rxjs-seeklogo.com"
     transform="matrix(1.3333333,0,0,-1.3333333,0,682.66667)"><g
       id="g12"
       transform="translate(256,448.8955)"><path
         d="M 0,0 -179.844,-62.561 -154.042,-301.67 0,-385.791 Z"
         style="fill:#6b1b89;fill-opacity:1;fill-rule:evenodd;stroke:none"
         id="path14" /></g><g
       id="g16"
       transform="translate(256,448.8955)"><path
         d="M 0,0 179.844,-62.561 154.042,-301.67 0,-385.791 Z"
         style="fill:#ea378e;fill-opacity:1;fill-rule:evenodd;stroke:none"
         id="path18" /></g><g
       id="g20"><g
         id="g22"><g
           id="g28"><g
             id="g30"><path
               d="m 318.728,205.504 c 0,0 17.445,-5.628 42.779,10.992 v 0 C 319.292,178.78 286.92,181.3 286.92,181.3 v 0 c 0,0 12.667,-14.34 38.847,-18.293 v 0 c -59.642,-9.843 -102.724,41.105 -102.724,41.105 v 0 c 0,0 1.694,-20.835 18.011,-33.784 v 0 c -35.74,9.58 -81.909,94.01 7.886,131.707 v 0 C 183.067,332.996 137.201,283.742 144.26,221.358 v 0 c 2.804,-24.749 38.807,-72.127 83.281,-84.511 v 0 c 121.844,-33.945 158.734,68.939 158.734,68.939 v 0 c 0,0 -36.87,-28.701 -45.321,-23.921 v 0 c 57.705,25.897 46.451,87.818 46.451,87.818 v 0 c 0,0 -14.643,-33.219 -25.332,-37.434 v 0 c 28.136,43.062 8.43,74.869 -0.566,82.453 v 0 c 12.807,-30.96 -2.4,-87.657 -42.779,-109.198"
               style="fill:url(#radialGradient38);stroke:none"
               id="path40" /></g></g></g></g><g
       id="g42"><g
         id="g44"
         clip-path="url(#clipPath48)"><g
           id="g50"
           transform="translate(289.7441,330.1924)"><path
             d="m 0,0 c 3.569,0 6.474,-2.904 6.474,-6.475 0,-3.569 -2.905,-6.474 -6.474,-6.474 -3.57,0 -6.475,2.905 -6.475,6.474 C -6.475,-2.904 -3.57,0 0,0"
             style="fill:#ffffff;fill-opacity:1;fill-rule:nonzero;stroke:none"
             id="path52" /></g></g></g><g
       id="g54"><g
         id="g56"><g
           id="g62"><g
             id="g64"><path
               d="m 206.807,319.119 39.209,1.593 7.422,18.194 c 0,0 -30.395,11.254 -35.741,11.718 v 0 c -17.648,-3.267 -27.027,-15.833 -10.89,-31.505"
               style="fill:url(#linearGradient72);stroke:none"
               id="path74" /></g></g></g></g><g
       id="g76"><g
         id="g78"><g
           id="g84"><g
             id="g86"><path
               d="M 248.033,369.22 C 178.69,365.671 116.97,293.908 144.26,221.358 v 0 c -7.059,62.384 38.807,111.638 104.68,80.677 v 0 c 15.611,-8.148 92.014,-40.944 108.07,-11.818 v 0 c 13.11,23.82 -43.365,73.78 -93.648,78.661 v 0 c -3.309,0.325 -6.618,0.483 -9.918,0.483 v 0 c -1.807,0 -3.612,-0.047 -5.411,-0.141 m -30.336,-18.596 c 5.346,-0.464 35.741,-11.718 35.741,-11.718 v 0 l -7.422,-18.194 -39.209,-1.593 c -16.137,15.672 -6.758,28.238 10.89,31.505 m 65.573,-26.907 c 0,3.571 2.904,6.475 6.474,6.475 v 0 c 3.57,0 6.474,-2.904 6.474,-6.475 v 0 c 0,-3.569 -2.904,-6.473 -6.474,-6.473 v 0 c -3.57,0 -6.474,2.904 -6.474,6.473"
               style="fill:url(#radialGradient94);stroke:none"
               id="path96" /></g></g></g></g><g
       id="g98"><g
         id="g100"
         clip-path="url(#clipPath104)"><g
           id="g106"
           transform="translate(129.1733,294.4517)"><path
             d="m 0,0 c 3.61,13.211 15.692,14.341 19.383,20.25 3.691,5.91 -1.654,26.887 8.996,34.349 10.649,7.443 19.807,3.913 25.151,5.991 10.932,4.276 20.069,25.797 36.81,26.361 19.564,0.666 28.52,-12.061 28.52,-12.061 V 74.769 C 49.517,71.219 -12.203,-0.544 15.087,-73.094 c -6.495,1.875 -16.62,15.954 -17.185,23.417 -0.564,7.462 5.769,6.473 7.221,18.717 C 6.576,-18.717 -3.61,-13.231 0,0"
             style="fill:#ea368e;fill-opacity:1;fill-rule:nonzero;stroke:none"
             id="path108" /></g></g></g></g></svg>
